<svg width="222" height="222" viewBox="0 0 222 222" fill="none" xmlns="http://www.w3.org/2000/svg">
<path d="M111.086 222.171C172.437 222.171 222.171 172.437 222.171 111.086C222.171 49.7348 172.437 0 111.086 0C49.7348 0 0 49.7348 0 111.086C0 172.437 49.7348 222.171 111.086 222.171Z" fill="#B9C4E1"/>
<path d="M111.086 156.686C134.944 156.686 154.286 129.9 154.286 96.8572C154.286 63.8147 134.944 37.0286 111.086 37.0286C87.227 37.0286 67.8857 63.8147 67.8857 96.8572C67.8857 129.9 87.227 156.686 111.086 156.686Z" fill="white"/>
<path d="M110.4 152.743C74.2285 152.743 41.9999 161.486 20.3999 175.029C40.457 203.486 73.5428 222 111.086 222C148.286 222 181.2 203.657 201.257 175.714C179.828 161.657 147.086 152.743 110.4 152.743Z" fill="white"/>
<path d="M117.6 181.543H104.4C95.3143 181.543 87.9429 174.171 87.9429 165.086V127.543C87.9429 118.457 95.3143 111.086 104.4 111.086H117.6C126.686 111.086 134.057 118.457 134.057 127.543V165.086C134.057 174.171 126.686 181.543 117.6 181.543Z" fill="white"/>
<path d="M74.5716 100.286C75.943 109.886 73.7144 118.114 69.7716 118.8C65.8287 119.486 61.543 112.286 60.343 102.686C59.143 93.0857 61.3716 84.6857 65.143 84C69.0859 83.3143 73.3716 90.6857 74.5716 100.286Z" fill="white"/>
<path d="M147.428 100.286C146.057 109.886 148.286 118.114 152.228 118.8C156.171 119.486 160.457 112.286 161.657 102.686C163.028 93.0857 160.8 84.8571 156.857 84.1714C152.914 83.4857 148.628 90.6857 147.428 100.286Z" fill="white"/>
<path d="M69.4287 94.4571C68.0572 84.8571 66.5144 75.2571 65.143 65.6571C64.6287 62.2285 64.1144 58.4571 65.3144 55.2C66.5144 51.9428 70.2858 49.3714 73.543 50.5714C72.1715 43.8857 79.543 38.9143 86.0573 36.8571C96.8573 33.0857 108.343 31.2 119.657 32.7428C130.972 34.2857 141.943 39.2571 149.657 47.6571C152.057 50.4 154.114 53.3143 155.314 56.7428C157.543 63.2571 156.172 70.4571 154.629 77.3143C153.429 82.6285 152.4 88.1143 151.2 93.4286C150.857 94.6286 150.686 96 149.829 96.8571C148.457 98.4 146.229 98.4 144.172 98.4C122.743 98.4 101.314 98.5714 79.8858 98.5714C75.943 98.5714 70.6287 97.5428 70.1144 93.6" fill="white"/>
</svg>
